<svg width="157" height="21" viewBox="0 0 157 21" fill="none" xmlns="http://www.w3.org/2000/svg">
<path d="M13.532 0.343999V4.18H5.524V8.324H11.516V12.048H5.524V20H0.736V0.343999H13.532ZM20.8365 0.343999V20H16.0485V0.343999H20.8365ZM37.3543 6.56C36.9996 5.90667 36.4863 5.412 35.8143 5.076C35.161 4.72133 34.3863 4.544 33.4903 4.544C31.941 4.544 30.6996 5.05733 29.7663 6.084C28.833 7.092 28.3663 8.44533 28.3663 10.144C28.3663 11.9547 28.8516 13.3733 29.8223 14.4C30.8116 15.408 32.165 15.912 33.8823 15.912C35.0583 15.912 36.0476 15.6133 36.8503 15.016C37.6716 14.4187 38.269 13.56 38.6423 12.44H32.5663V8.912H42.9823V13.364C42.6276 14.5587 42.021 15.6693 41.1623 16.696C40.3223 17.7227 39.249 18.5533 37.9423 19.188C36.6356 19.8227 35.161 20.14 33.5183 20.14C31.577 20.14 29.841 19.72 28.3103 18.88C26.7983 18.0213 25.613 16.836 24.7543 15.324C23.9143 13.812 23.4943 12.0853 23.4943 10.144C23.4943 8.20267 23.9143 6.476 24.7543 4.964C25.613 3.43333 26.7983 2.248 28.3103 1.408C29.8223 0.549332 31.549 0.119999 33.4903 0.119999C35.8423 0.119999 37.821 0.689332 39.4263 1.828C41.0503 2.96667 42.1236 4.544 42.6463 6.56H37.3543Z" fill="white"/>
<path d="M67.8944 0.343999V20H63.1064V8.212L58.7104 20H54.8464L50.4224 8.184V20H45.6344V0.343999H51.2904L56.8064 13.952L62.2664 0.343999H67.8944ZM83.5736 16.528H76.2376L75.0616 20H70.0496L77.1616 0.343999H82.7056L89.8176 20H84.7496L83.5736 16.528ZM82.3416 12.832L79.9056 5.636L77.4976 12.832H82.3416ZM99.0941 20.196C97.6568 20.196 96.3688 19.9627 95.2301 19.496C94.0914 19.0293 93.1768 18.3387 92.4861 17.424C91.8141 16.5093 91.4594 15.408 91.4221 14.12H96.5181C96.5928 14.848 96.8448 15.408 97.2741 15.8C97.7034 16.1733 98.2634 16.36 98.9541 16.36C99.6634 16.36 100.223 16.2013 100.634 15.884C101.045 15.548 101.25 15.0907 101.25 14.512C101.25 14.0267 101.082 13.6253 100.746 13.308C100.429 12.9907 100.027 12.7293 99.5421 12.524C99.0754 12.3187 98.4034 12.0853 97.5261 11.824C96.2568 11.432 95.2208 11.04 94.4181 10.648C93.6154 10.256 92.9248 9.67733 92.3461 8.912C91.7674 8.14667 91.4781 7.148 91.4781 5.916C91.4781 4.08667 92.1408 2.65867 93.4661 1.632C94.7914 0.586666 96.5181 0.0639997 98.6461 0.0639997C100.811 0.0639997 102.557 0.586666 103.882 1.632C105.207 2.65867 105.917 4.096 106.01 5.944H100.83C100.793 5.30933 100.559 4.81467 100.13 4.46C99.7008 4.08667 99.1501 3.9 98.4781 3.9C97.8994 3.9 97.4328 4.05867 97.0781 4.376C96.7234 4.67467 96.5461 5.11333 96.5461 5.692C96.5461 6.32667 96.8448 6.82133 97.4421 7.176C98.0394 7.53067 98.9728 7.91333 100.242 8.324C101.511 8.75333 102.538 9.164 103.322 9.556C104.125 9.948 104.815 10.5173 105.394 11.264C105.973 12.0107 106.262 12.972 106.262 14.148C106.262 15.268 105.973 16.2853 105.394 17.2C104.834 18.1147 104.013 18.8427 102.93 19.384C101.847 19.9253 100.569 20.196 99.0941 20.196ZM123.349 0.343999V4.18H118.141V20H113.353V4.18H108.145V0.343999H123.349ZM130.54 4.18V8.156H136.952V11.852H130.54V16.164H137.792V20H125.752V0.343999H137.792V4.18H130.54ZM150.924 20L146.836 12.58H145.688V20H140.9V0.343999H148.936C150.485 0.343999 151.801 0.614666 152.884 1.156C153.985 1.69733 154.807 2.444 155.348 3.396C155.889 4.32933 156.16 5.37467 156.16 6.532C156.16 7.83867 155.787 9.00533 155.04 10.032C154.312 11.0587 153.229 11.7867 151.792 12.216L156.328 20H150.924ZM145.688 9.192H148.656C149.533 9.192 150.187 8.97733 150.616 8.548C151.064 8.11867 151.288 7.512 151.288 6.728C151.288 5.98133 151.064 5.39333 150.616 4.964C150.187 4.53467 149.533 4.32 148.656 4.32H145.688V9.192Z" fill="#FFA724"/>
</svg>
